<?xml version="1.0" encoding="utf-8"?>
<!-- Generator: Adobe Illustrator 19.2.1, SVG Export Plug-In . SVG Version: 6.00 Build 0)  -->
<svg version="1.1" id="b07e16be-2c10-4721-ba95-38a6ee556ecd"
	 xmlns="http://www.w3.org/2000/svg" xmlns:xlink="http://www.w3.org/1999/xlink" x="0px" y="0px" viewBox="0 0 1132.4 767.1"
	 style="enable-background:new 0 0 1132.4 767.1;" xml:space="preserve">
<style type="text/css">
	.st0{fill:#6C63FF;}
	.st1{fill:#444053;}
	.st2{fill:#3F3D56;}
	.st3{fill:#FFFFFF;}
	.st4{opacity:0.8;fill:#FA5959;enable-background:new    ;}
	.st5{opacity:0.8;fill:#FED253;enable-background:new    ;}
	.st6{opacity:0.8;fill:#8CCF4D;enable-background:new    ;}
	.st7{opacity:0.3;}
	.st8{fill:none;stroke:#3F3D56;stroke-miterlimit:10;}
	.st9{opacity:0.1;fill:#3F3D56;enable-background:new    ;}
	.st10{fill:url(#SVGID_1_);}
	.st11{fill:#7CFCFF;}
	.st12{fill:url(#SVGID_2_);}
	.st13{fill:#FFFFA5;}
	.st14{fill:url(#SVGID_3_);}
	.st15{fill:url(#SVGID_4_);}
	.st16{fill:url(#SVGID_5_);}
	.st17{fill:#FF69B4;}
	.st18{fill:url(#SVGID_6_);}
	.st19{fill:url(#SVGID_7_);}
	.st20{fill:url(#SVGID_8_);}
	.st21{fill:url(#SVGID_9_);}
	.st22{fill:url(#SVGID_10_);}
	.st23{fill:url(#SVGID_11_);}
	.st24{fill:url(#SVGID_12_);}
</style>
<title>schedule</title>
<path class="st0" d="M958.8,626c0,0-12.3-8.1-24.5-2.3c0,0,3.8,7.2,19.2,6.5L958.8,626z"/>
<path class="st0" d="M960.3,626.4c0,0,3.7,14.2-5.6,23.9c0,0-5.6-5.9,0-20.3L960.3,626.4z"/>
<path class="st0" d="M975.7,612.8c0,0-0.9-12.1-28.3-8.1c0,0-0.1,7.8,9.5,11.5S970.9,616.8,975.7,612.8z"/>
<path class="st0" d="M977.4,612.7c0,0,11.6,3.7,1.3,29.4c0,0-7.6-1.7-9-11.9S972.3,616.4,977.4,612.7z"/>
<path class="st0" d="M992.9,595.5c0,0,1.6-19.9-26.4-17.9c0,0-2,18,21.5,22.7L992.9,595.5z"/>
<path class="st0" d="M1011.3,573c0,0-3.8-22.6-31.8-15.8c0,0-0.1,19.5,27.2,21.2L1011.3,573z"/>
<path class="st0" d="M1024.8,549.7c0,0-6.4-22-34.1-15.4c0,0,6.6,19.8,32.3,19.5L1024.8,549.7z"/>
<path class="st0" d="M1037.6,527c0,0-6.3-22.8-33-16c0,0,8.9,21.7,31.2,19.9L1037.6,527z"/>
<path class="st0" d="M1045.9,505.5c0,0-4.8-27.9-29.7-21.7c0,0,7.2,25.4,27.9,25.8L1045.9,505.5z"/>
<path class="st0" d="M1053.6,479.4c0,0-5.8-28.2-31-20c0,0,9.9,26.6,29.2,23.8L1053.6,479.4z"/>
<path class="st0" d="M1058.4,455.1c0,0-9.2-28.1-28.7-27.4c0,0,9.4,29.7,27,33L1058.4,455.1z"/>
<path class="st0" d="M1061.5,431.4c0,0-10-33.9-25.9-31.3c0,0,6.9,25.9,25.3,36.5L1061.5,431.4z"/>
<path class="st0" d="M1063.2,403.2c0,0-9.4-28.2-25-29.4c0,0,6.4,27.8,24.7,36.7L1063.2,403.2z"/>
<path class="st0" d="M1065.1,376.8c0,0-11.7-28.3-22-28.9c0,0,5.1,27.8,21,33.5L1065.1,376.8z"/>
<path class="st0" d="M1066.4,352.3c0,0-7.2-30.7-17.5-33.2c0,0,1.4,25.1,16.5,35.5L1066.4,352.3z"/>
<path class="st0" d="M1070.3,320.2c0,0-7.6-24.5-15.9-28.2c0,0,1.7,28.8,14,34.2L1070.3,320.2z"/>
<path class="st0" d="M1073.5,299.1l1.5-43.1c0,0-15.6,32.5-2.7,50.8L1073.5,299.1z"/>
<path class="st0" d="M1085.6,256.3c0,0,11.3-31.5,14-33.3c0,0-22.1,20.4-19.9,46.7L1085.6,256.3z"/>
<path class="st0" d="M993.6,595.4c0,0,19.8-2.6,19.2,25.4c0,0-17.9,2.9-23.8-20.3L993.6,595.4z"/>
<path class="st0" d="M1012.3,572.3c0,0,22.9-0.1,21,28.6c0,0-19.2,3.4-25.6-23.2L1012.3,572.3z"/>
<path class="st0" d="M1025,551.6c0,0,20.8-9.8,34.1,15.4c0,0-19.2,8.1-35.9-11.3L1025,551.6z"/>
<path class="st0" d="M1038.1,527.2c0,0,21.3-10.4,33.8,14.2c0,0-22.2,7.6-35.5-10.3L1038.1,527.2z"/>
<path class="st0" d="M1045.6,506c0,0,20.5-19.6,36.8,0.2c0,0-20.9,16.1-37.8,4.1L1045.6,506z"/>
<path class="st0" d="M1052.5,478.7c0,0,20.6-20,36.8,0.9c0,0-23.1,16.4-37.6,3.3L1052.5,478.7z"/>
<path class="st0" d="M1056.3,454.3c0,0,15.9-25,34.6-19.4c0,0-16.5,26.5-34.4,25.3L1056.3,454.3z"/>
<path class="st0" d="M1061,431.3c0,0,16-31.5,31.1-26c0,0-11.5,24.2-31.5,31.3L1061,431.3z"/>
<path class="st0" d="M1062.1,401.6c0,0,16.4-24.8,31.9-21.8c0,0-13.4,25.1-33.4,28.9L1062.1,401.6z"/>
<path class="st0" d="M1063.4,376.3c0,0,12.7-27.8,23.1-28c0,0-6.1,27.6-22.3,32.7L1063.4,376.3z"/>
<path class="st0" d="M1065.9,351.7c0,0,14.2-28.2,24.8-28.2c0,0-7.3,24.1-24.3,30.7L1065.9,351.7z"/>
<path class="st0" d="M1068,322c0,0,10.6-23.3,19.4-25.9c0,0-5.3,28.4-18.2,32.1L1068,322z"/>
<path class="st0" d="M1074.8,298.3l23.7-36.1c0,0-6.1,35.6-27.1,43L1074.8,298.3z"/>
<path class="st0" d="M1091.1,259.2c0,0,27.5-19,28.5-22.1c0,0-14,26.6-40,31.3L1091.1,259.2z"/>
<path class="st0" d="M1092.7,250.6c0,0,31.6-30.4,39.7-30.4c0,0-26.1,1.2-40.4,28.7L1092.7,250.6z"/>
<path class="st1" d="M1068.3,326.5l1.2,0.1c5.9-46.5,14.6-74,24.4-77.4l-0.4-1.1C1083.1,251.7,1074.4,278.8,1068.3,326.5z"/>
<path class="st1" d="M1059.6,437.6l1.7,0.1c0.4-4.3,0.6-8.8,0.8-13.2c1.7-38.5,4.2-73.8,7.6-100.3l-1-1.3
	c-3.4,26.5-6.7,63-8.3,101.5C1060.3,428.9,1060,433.3,1059.6,437.6z"/>
<path class="st1" d="M926.4,648.1c0.3-0.1,30.9-13.8,62.7-46.4c18.6-19.1,34.1-41,45.8-65c14.7-29.9,23.7-66.7,26.7-102.4l-1.8,0.9
	c-6.8,80.2-43.3,135-72.3,164.8c-31.5,32.3-61.8,45.9-62.1,46L926.4,648.1z"/>
<path class="st2" d="M1048.7,48.9H87.8c-4.7,0-8.6,3.8-8.6,8.6v24.9h978V57.4C1057.3,52.7,1053.4,48.9,1048.7,48.9z"/>
<path class="st3" d="M79.3,82.4v561.2c0,9.5,7.7,17.3,17.3,17.3l0,0H1040c9.5,0,17.3-7.7,17.3-17.3l0,0V82.4H79.3z"/>
<circle class="st4" cx="94.8" cy="65.4" r="4"/>
<circle class="st5" cx="105.8" cy="65.4" r="4"/>
<circle class="st6" cx="116.8" cy="65.4" r="4"/>
<g class="st7">
	<rect x="116.8" y="116.4" class="st8" width="904" height="510"/>
	<rect x="234.8" y="116.4" class="st8" width="668" height="510"/>
	<rect x="352.8" y="116.4" class="st8" width="432" height="510"/>
	<rect x="470.8" y="116.4" class="st8" width="196" height="510"/>
	<line class="st8" x1="568.8" y1="116.4" x2="568.8" y2="626.4"/>
	<rect x="116.8" y="190.4" class="st8" width="904" height="362"/>
	<rect x="116.8" y="263.4" class="st8" width="904" height="216"/>
	<rect x="116.8" y="336.4" class="st8" width="904" height="70"/>
</g>
<rect x="258.3" y="144.9" class="st9" width="71" height="26"/>
<rect x="147.3" y="215.9" class="st9" width="53" height="26"/>
<rect x="373.3" y="144.9" class="st9" width="71" height="26"/>
<rect x="481.3" y="144.9" class="st9" width="71" height="26"/>
<rect x="581.3" y="144.9" class="st9" width="71" height="26"/>
<rect x="693.3" y="144.9" class="st9" width="71" height="26"/>
<rect x="807.3" y="144.9" class="st9" width="71" height="26"/>
<rect x="928.3" y="144.9" class="st9" width="71" height="26"/>
<linearGradient id="SVGID_1_" gradientUnits="userSpaceOnUse" x1="421.855" y1="437.52" x2="421.855" y2="482.18" gradientTransform="matrix(1 0 0 -1 0 768)">
	<stop  offset="0" style="stop-color:#808080;stop-opacity:0.25"/>
	<stop  offset="0.54" style="stop-color:#808080;stop-opacity:0.12"/>
	<stop  offset="1" style="stop-color:#808080;stop-opacity:0.1"/>
</linearGradient>

<rect x="399.6" y="286.6" class="st11" width="44.5" height="43.1">
	<animateTransform attributeName="transform"
	  attributeType="XML"
	  type="translate"
		values="0 0;0 48;0 0"
	  dur="2.2s"
	  repeatCount="indefinite"/>
</rect>

<rect x="493.8" y="276.1" class="st12" width="46.1" height="44.7"/>
<rect x="494.6" y="276.9" class="st13" width="44.5" height="43.1">
	<animateTransform attributeName="transform"
	  attributeType="XML"
	  type="translate"
		values="0 0;25 0;0 0"
	  dur="2s"
	  repeatCount="indefinite"/>
</rect>

<rect x="676.8" y="428.1" class="st14" width="46.1" height="44.7"/>
<rect x="677.6" y="428.9" class="st13" width="44.5" height="43.1">
	<animateTransform attributeName="transform"
	  attributeType="XML"
	  type="translate"
		values="0 0;0 58;0 0"
	  dur="2s"
	  repeatCount="indefinite"/>
</rect>

<rect x="270.6" y="206.2" class="st15" width="46.1" height="44.7"/>
<rect x="271.4" y="207" class="st13" width="44.5" height="43.1"/>
<linearGradient id="SVGID_5_" gradientUnits="userSpaceOnUse" x1="385.295" y1="453.11" x2="385.295" y2="497.77" gradientTransform="matrix(1 0 0 -1 0 768)">
	<stop  offset="0" style="stop-color:#808080;stop-opacity:0.25"/>
	<stop  offset="0.54" style="stop-color:#808080;stop-opacity:0.12"/>
	<stop  offset="1" style="stop-color:#808080;stop-opacity:0.1"/>
</linearGradient>
<rect x="362.2" y="270.2" class="st16" width="46.1" height="44.7"/>
<rect x="363" y="271" class="st17" width="44.5" height="43.1"/>
<linearGradient id="SVGID_6_" gradientUnits="userSpaceOnUse" x1="753.855" y1="295.52" x2="753.855" y2="340.18" gradientTransform="matrix(1 0 0 -1 0 768)">
	<stop  offset="0" style="stop-color:#808080;stop-opacity:0.25"/>
	<stop  offset="0.54" style="stop-color:#808080;stop-opacity:0.12"/>
	<stop  offset="1" style="stop-color:#808080;stop-opacity:0.1"/>
</linearGradient>
<rect x="730.8" y="427.8" class="st18" width="46.1" height="44.7"/>
<rect x="731.6" y="428.6" class="st11" width="44.5" height="43.1"/>
<linearGradient id="SVGID_7_" gradientUnits="userSpaceOnUse" x1="834.855" y1="516.52" x2="834.855" y2="561.18" gradientTransform="matrix(1 0 0 -1 0 768)">
	<stop  offset="0" style="stop-color:#808080;stop-opacity:0.25"/>
	<stop  offset="0.54" style="stop-color:#808080;stop-opacity:0.12"/>
	<stop  offset="1" style="stop-color:#808080;stop-opacity:0.1"/>
</linearGradient>
<rect x="811.8" y="206.8" class="st19" width="46.1" height="44.7"/>
<rect x="812.6" y="207.6" class="st11" width="44.5" height="43.1"/>
<linearGradient id="SVGID_8_" gradientUnits="userSpaceOnUse" x1="829.855" y1="374.52" x2="829.855" y2="419.18" gradientTransform="matrix(1 0 0 -1 0 768)">
	<stop  offset="0" style="stop-color:#808080;stop-opacity:0.25"/>
	<stop  offset="0.54" style="stop-color:#808080;stop-opacity:0.12"/>
	<stop  offset="1" style="stop-color:#808080;stop-opacity:0.1"/>
</linearGradient>
<rect x="806.8" y="348.8" class="st20" width="46.1" height="44.7"/>
<rect x="807.6" y="349.6" class="st11" width="44.5" height="43.1"/>
<linearGradient id="SVGID_9_" gradientUnits="userSpaceOnUse" x1="864.855" y1="364.52" x2="864.855" y2="409.18" gradientTransform="matrix(1 0 0 -1 0 768)">
	<stop  offset="0" style="stop-color:#808080;stop-opacity:0.25"/>
	<stop  offset="0.54" style="stop-color:#808080;stop-opacity:0.12"/>
	<stop  offset="1" style="stop-color:#808080;stop-opacity:0.1"/>
</linearGradient>
<rect x="842.6" y="359.6" class="st11" width="44.5" height="43.1">
	<animateTransform attributeName="transform"
	  attributeType="XML"
	  type="translate"
		values="0 0;80 0;0 0"
	  dur="2s"
	  repeatCount="indefinite"/>
</rect>
<linearGradient id="SVGID_10_" gradientUnits="userSpaceOnUse" x1="717.295" y1="311.11" x2="717.295" y2="355.77" gradientTransform="matrix(1 0 0 -1 0 768)">
	<stop  offset="0" style="stop-color:#808080;stop-opacity:0.25"/>
	<stop  offset="0.54" style="stop-color:#808080;stop-opacity:0.12"/>
	<stop  offset="1" style="stop-color:#808080;stop-opacity:0.1"/>
</linearGradient>
<rect x="694.2" y="412.2" class="st22" width="46.1" height="44.7"/>
<rect x="695" y="413" class="st17" width="44.5" height="43.1"/>
<linearGradient id="SVGID_11_" gradientUnits="userSpaceOnUse" x1="722.295" y1="446.11" x2="722.295" y2="490.77" gradientTransform="matrix(1 0 0 -1 0 768)">
	<stop  offset="0" style="stop-color:#808080;stop-opacity:0.25"/>
	<stop  offset="0.54" style="stop-color:#808080;stop-opacity:0.12"/>
	<stop  offset="1" style="stop-color:#808080;stop-opacity:0.1"/>
</linearGradient>
<rect x="700" y="278" class="st17" width="44.5" height="43.1">
	<animateTransform attributeName="transform"
	  attributeType="XML"
	  type="translate"
		values="0 0;0 -62;0 0"
	  dur="3s"
	  repeatCount="indefinite"/>
</rect>
<rect x="147.3" y="285.9" class="st9" width="53" height="26"/>
<rect x="147.3" y="358.9" class="st9" width="53" height="26"/>
<rect x="147.3" y="431.9" class="st9" width="53" height="26"/>
<rect x="147.3" y="504.9" class="st9" width="53" height="26"/>
<rect x="147.3" y="577.9" class="st9" width="53" height="26"/>
<linearGradient id="SVGID_12_" gradientUnits="userSpaceOnUse" x1="277.855" y1="374.52" x2="277.855" y2="419.18" gradientTransform="matrix(1 0 0 -1 0 768)">
	<stop  offset="0" style="stop-color:#808080;stop-opacity:0.25"/>
	<stop  offset="0.54" style="stop-color:#808080;stop-opacity:0.12"/>
	<stop  offset="1" style="stop-color:#808080;stop-opacity:0.1"/>
</linearGradient>
<rect x="255.6" y="349.6" class="st11" width="44.5" height="43.1">
	<animateTransform attributeName="transform"
	  attributeType="XML"
	  type="translate"
		values="0 0;0 -58;0 0"
	  dur="2s"
	  repeatCount="indefinite"/>
</rect>
</svg>
