<?xml version="1.0" encoding="utf-8"?>
<!-- Generator: Adobe Illustrator 19.2.1, SVG Export Plug-In . SVG Version: 6.00 Build 0)  -->
<svg version="1.1" id="b759170a-51c3-4e2f-999d-77dec9fd6d11"
	 xmlns="http://www.w3.org/2000/svg" xmlns:xlink="http://www.w3.org/1999/xlink" x="0px" y="0px" viewBox="0 0 1140.6 787.3"
	 style="enable-background:new 0 0 1140.6 787.3;" xml:space="preserve">
<style type="text/css">
	.st0{fill:#FF6347;}
	.st1{fill:#444053;}
	.st2{fill:#AFC0E0;}
	.st3{opacity:0.2;fill:#FFFFFF;enable-background:new    ;}
	.st4{opacity:0.1;enable-background:new    ;}
	.st5{fill:#E3E8F4;}
</style>
<title>maker launch</title>
<path class="st0" d="M414.1,601.6c0,0,13.2-3,21.9,5.9c0,0-5.6,5-18.6-0.5L414.1,601.6z"/>
<path class="st0" d="M412.7,601.5c0,0-7.8,11.1-2.9,22.5c0,0,6.8-3.3,6.6-17.5L412.7,601.5z"/>
<path class="st0" d="M403.9,584.8c0,0,4.7-10.2,27,2.1c0,0-2.4,6.8-11.9,6.9S406.7,589.8,403.9,584.8z"/>
<path class="st0" d="M402.5,584.2c0,0-11.2-0.5-10.5,24.9c0,0,7.1,1,11.6-7.4C408,593.3,405.6,589,402.5,584.2z"/>
<path class="st0" d="M394.7,564.4c0,0,5-17.7,28.5-6.9c0,0-4.1,16.2-25.8,12.6L394.7,564.4z"/>
<path class="st0" d="M386,539c0,0,10.6-18.2,32.5-3.4c0,0-6.2,16.9-30.3,9.5L386,539z"/>
<path class="st0" d="M381.8,514.6c0,0,12.6-17,34.4-2.3c0,0-12.1,14.9-34.1,6.4L381.8,514.6z"/>
<path class="st0" d="M378.1,490.9c0,0,12.8-17.7,33.6-3.2c0,0-14.7,15.8-33.3,7.1L378.1,490.9z"/>
<path class="st0" d="M377.9,469.7c0,0,13.1-22.5,32.6-9.2c0,0-14.4,19.6-32.4,13.3L377.9,469.7z"/>
<path class="st0" d="M379.7,444.7c0,0,14-22.4,33.1-7.2c0,0-17.1,19.8-32.9,11.1L379.7,444.7z"/>
<path class="st0" d="M383.3,422.2c0,0,17-21.3,33.6-14.4c0,0-17.7,22.6-34,19.8L383.3,422.2z"/>
<path class="st0" d="M388.3,400.8c0,0,19.5-26,32.4-18.6c0,0-14.3,20.1-33.6,23.4L388.3,400.8z"/>
<path class="st0" d="M395.9,375.9c0,0,17.2-21.3,31-17.2c0,0-14.4,21.9-33.1,23.7L395.9,375.9z"/>
<path class="st0" d="M402.8,352.6c0,0,19.2-20.6,28.3-17.8c0,0-13.4,22.4-28.9,22.1L402.8,352.6z"/>
<path class="st0" d="M409.6,331c0,0,16.1-24.1,25.8-23c0,0-9.3,21.2-25.7,25.3L409.6,331z"/>
<path class="st0" d="M416.5,302.1c0,0,14.4-18.7,22.8-19.2c0,0-10.7,24.3-23.1,25L416.5,302.1z"/>
<path class="st0" d="M420.5,282.9l12.6-37.7c0,0,3,33.1-14,44.6L420.5,282.9z"/>
<path class="st0" d="M423.9,242c0,0,0.4-30.8-1.3-33.2c0,0,12.5,24.7,2.1,46.7L423.9,242z"/>
<path class="st0" d="M394,564c0,0-16.3-8.6-24.8,15.7c0,0,14.5,8.3,27-9.8L394,564z"/>
<path class="st0" d="M385.4,538.1c0,0-19.7-7.5-27.4,17.9c0,0,15.5,9.2,29.5-11.8L385.4,538.1z"/>
<path class="st0" d="M381,516.2c0,0-14.8-15.1-34.4,2.3c0,0,13.9,13.2,34.6,1.8L381,516.2z"/>
<path class="st0" d="M377.6,491c0,0-15-15.8-33.7,1.4c0,0,16.7,13.7,34,2.5L377.6,491z"/>
<path class="st0" d="M378,470.3c0,0-11.4-23.5-31.8-11.7c0,0,12.9,20.6,31.2,15.7L378,470.3z"/>
<path class="st0" d="M380.9,444.5c0,0-11.3-23.9-32.1-11.1c0,0,14.7,21.6,31.3,14.9L380.9,444.5z"/>
<path class="st0" d="M385.4,422.2c0,0-5.6-26.6-23.6-27.9c0,0,5.7,28.1,21.5,32.9L385.4,422.2z"/>
<path class="st0" d="M388.8,400.8c0,0-3.7-32.3-18.5-32.5c0,0,2.1,24.6,17.1,37.1L388.8,400.8z"/>
<path class="st0" d="M397.4,374.8c0,0-6.2-26.7-20.5-29c0,0,3.5,26,19.5,35.7L397.4,374.8z"/>
<path class="st0" d="M404.5,352.6c0,0-2-28.1-10.9-31.6c0,0-3.6,25.8,8.6,35.4L404.5,352.6z"/>
<path class="st0" d="M410.2,330.7c0,0-3.1-28.9-12.3-32.3c0,0-1.5,23.1,11.1,34.3L410.2,330.7z"/>
<path class="st0" d="M417.9,304.3c0,0-1.6-23.5-8.4-28.6c0,0-4.6,26.2,5.4,33.6L417.9,304.3z"/>
<path class="st0" d="M419.7,281.8l-8.8-38.7c0,0-6.2,32.6,9.6,45.8L419.7,281.8z"/>
<path class="st0" d="M418.3,242.8c0,0-17.6-25.3-17.5-28.2c0,0,3.5,27.5,24.4,39.9L418.3,242.8z"/>
<path class="st0" d="M419.7,234.9c0,0-17.5-36.4-24.4-39c0,0,22.1,9.4,25.6,37.8L419.7,234.9z"/>
<path class="st1" d="M416.2,308.1l-1-0.3c9.9-42,11.2-68.5,3.9-74.6l0.7-0.8C427.5,238.9,426.3,265.1,416.2,308.1z"/>
<path class="st1" d="M387.9,406.8l-1.6-0.4c1.1-3.9,2.3-7.8,3.5-11.7c11-33.7,20.1-65,25.8-88.9l1.3-0.8
	c-5.6,24-14.5,56.4-25.5,90.2C390.2,399,389,402.9,387.9,406.8z"/>
<path class="st1" d="M435,631.2c-0.2-0.2-22.2-21.9-39.1-60.2c-9.9-22.5-16.2-46.3-18.6-70.8c-3-30.5,1.1-65.1,10-96.9l1.3,1.3
	c-20,71.3-6.2,130.3,9.2,165.4c16.7,38,38.5,59.5,38.7,59.7L435,631.2z"/>
<path class="st0" d="M459.2,517c0,0,8-1.8,13.2,3.5c0,0-3.4,3-11.3-0.3L459.2,517z"/>
<path class="st0" d="M458.3,516.9c0,0-4.7,6.7-1.7,13.6c0,0,4.1-2,4-10.5L458.3,516.9z"/>
<path class="st0" d="M453,506.8c0,0,2.8-6.1,16.3,1.3c0,0-1.5,4.1-7.2,4.2C456.4,512.3,454.7,509.8,453,506.8z"/>
<path class="st0" d="M452.2,506.4c0,0-6.8-0.3-6.4,15.1c0,0,4.3,0.6,7-4.5C455.5,511.9,454.1,509.3,452.2,506.4z"/>
<path class="st0" d="M447.4,494.4c0,0,3.1-10.7,17.2-4.2c0,0-2.5,9.8-15.6,7.6L447.4,494.4z"/>
<path class="st0" d="M442.2,479.1c0,0,6.4-11,19.6-2.1c0,0-3.8,10.2-18.3,5.8L442.2,479.1z"/>
<path class="st0" d="M439.7,464.4c0,0,7.6-10.3,20.8-1.4c0,0-7.3,9-20.6,3.9L439.7,464.4z"/>
<path class="st0" d="M437.4,450c0,0,7.7-10.7,20.3-1.9c0,0-8.9,9.6-20.1,4.3L437.4,450z"/>
<path class="st0" d="M437.3,437.2c0,0,8-13.6,19.7-5.5c0,0-8.7,11.8-19.6,8L437.3,437.2z"/>
<path class="st0" d="M438.4,422.1c0,0,8.5-13.5,20-4.4c0,0-10.3,11.9-19.9,6.7L438.4,422.1z"/>
<path class="st0" d="M440.6,408.5c0,0,10.3-12.9,20.3-8.7c0,0-10.7,13.7-20.5,11.9L440.6,408.5z"/>
<path class="st0" d="M443.6,395.6c0,0,11.8-15.7,19.6-11.3c0,0-8.6,12.1-20.3,14.1L443.6,395.6z"/>
<path class="st0" d="M448.2,380.5c0,0,10.4-12.9,18.8-10.4c0,0-8.7,13.2-20,14.3L448.2,380.5z"/>
<path class="st0" d="M452.4,366.4c0,0,11.6-12.5,17.1-10.8c0,0-8.1,13.5-17.5,13.4L452.4,366.4z"/>
<path class="st0" d="M456.4,353.4c0,0,9.7-14.6,15.6-13.9c0,0-5.6,12.8-15.5,15.3L456.4,353.4z"/>
<path class="st0" d="M460.7,335.9c0,0,8.7-11.3,13.8-11.6c0,0-6.5,14.7-14,15.1L460.7,335.9z"/>
<path class="st0" d="M463.1,324.3l7.6-22.8c0,0,1.8,20-8.5,27L463.1,324.3z"/>
<path class="st0" d="M465.1,299.6c0,0,0.3-18.6-0.8-20c0,0,7.5,15,1.3,28.2L465.1,299.6z"/>
<path class="st0" d="M447.1,494.2c0,0-9.8-5.2-15,9.5c0,0,8.8,5,16.3-5.9L447.1,494.2z"/>
<path class="st0" d="M441.9,478.5c0,0-11.9-4.5-16.5,10.8c0,0,9.4,5.5,17.8-7.1L441.9,478.5z"/>
<path class="st0" d="M439.2,465.3c0,0-8.9-9.1-20.8,1.4c0,0,8.4,8,20.9,1.1L439.2,465.3z"/>
<path class="st0" d="M437.1,450c0,0-9.1-9.5-20.4,0.8c0,0,10.1,8.3,20.5,1.5L437.1,450z"/>
<path class="st0" d="M437.3,437.5c0,0-6.9-14.2-19.3-7.1c0,0,7.8,12.5,18.9,9.5L437.3,437.5z"/>
<path class="st0" d="M439.1,421.9c0,0-6.9-14.5-19.4-6.7c0,0,8.9,13.1,19,9L439.1,421.9z"/>
<path class="st0" d="M441.8,408.5c0,0-3.4-16.1-14.2-16.9c0,0,3.4,17,13,19.9L441.8,408.5z"/>
<path class="st0" d="M443.9,395.6c0,0-2.2-19.5-11.2-19.6c0,0,1.3,14.9,10.3,22.5L443.9,395.6z"/>
<path class="st0" d="M449.1,379.9c0,0-3.8-16.1-12.4-17.5c0,0,2.1,15.7,11.8,21.6L449.1,379.9z"/>
<path class="st0" d="M453.4,366.4c0,0-1.2-17-6.6-19.1c0,0-2.2,15.6,5.2,21.4L453.4,366.4z"/>
<path class="st0" d="M456.8,353.1c0,0-1.9-17.4-7.4-19.5c0,0-0.9,14,6.7,20.7L456.8,353.1z"/>
<path class="st0" d="M461.5,337.2c0,0-1-14.2-5-17.3c0,0-2.8,15.8,3.2,20.3L461.5,337.2z"/>
<path class="st0" d="M462.6,323.6l-5.3-23.4c0,0-3.8,19.7,5.8,27.7L462.6,323.6z"/>
<path class="st0" d="M461.7,300c0,0-10.6-15.3-10.6-17.1c0,0,2.1,16.6,14.8,24.1L461.7,300z"/>
<path class="st0" d="M462.5,295.2c0,0-10.6-22-14.8-23.5c0,0,13.4,5.7,15.5,22.9L462.5,295.2z"/>
<path class="st1" d="M460.5,339.5l-0.6-0.1c6-25.4,6.8-41.4,2.4-45.1l0.4-0.5C467.3,297.7,466.6,313.5,460.5,339.5z"/>
<path class="st1" d="M443.4,399.2l-0.9-0.3c0.7-2.3,1.4-4.7,2.1-7c6.6-20.4,12.2-39.3,15.6-53.8l0.8-0.5
	c-3.4,14.5-8.8,34.1-15.4,54.5C444.7,394.5,444,396.8,443.4,399.2z"/>
	<path class="st1" d="M471.8,534.8c-0.1-0.1-13.4-13.2-23.6-36.4c-6-13.6-9.8-28-11.3-42.8c-1.8-18.5,0.7-39.4,6.1-58.6l0.8,0.8
		c-12.1,43.1-3.7,78.8,5.6,100c10.1,23,23.3,35.9,23.4,36.1L471.8,534.8z"/>
<g id="nave">
<path class="st2" d="M501.9,584.8c-2.6,0.5-5.1,1.2-7.5,2.1c-53.9,21.5-53,162.5-53,162.5h-15.9c0,0-5-60.5-26.8-146.8
	c-19.6-77.7,60.9-147.3,77.2-160.5c1.8-1.5,2.9-2.3,2.9-2.3C559.9,469.7,501.9,584.8,501.9,584.8z"/>
<path class="st3" d="M484.7,442.4c-1.9-0.9-3.8-1.7-5.9-2.4c0,0-1,0.8-2.9,2.3c-16.4,13.2-96.9,82.8-77.2,160.5
	c21.8,86.3,26.7,146.8,26.7,146.8h8.9c0,0-4.9-60.5-26.8-146.8C388.1,525.3,467.8,456,484.7,442.4z"/>
<path class="st2" d="M769.4,602.7c-21.8,86.3-26.8,146.8-26.8,146.8h-15.9c0,0,1-147.4-56.7-163.8c-1.3-0.4-2.5-0.7-3.8-0.9
	c0,0-58-115.1,23.1-144.9c0,0,0.8,0.6,2.3,1.8C706.7,453.8,789.3,524.1,769.4,602.7z"/>
<path class="st4" d="M501.9,584.8c-2.6,0.5-5.1,1.2-7.5,2.1c-9.8-47.7-15.9-96.1-18.5-144.8c1.8-1.5,2.9-2.3,2.9-2.3
	C559.9,469.7,501.9,584.8,501.9,584.8z"/>
<path class="st4" d="M691.7,441.7c-3.3,48.5-10.5,96.7-21.6,144c-1.3-0.4-2.5-0.7-3.8-0.9c0,0-58-115.1,23.1-144.9
	C689.4,439.9,690.2,440.6,691.7,441.7z"/>
<path class="st5" d="M662,606.6c-5.6,22.1-12.2,44.8-19.7,68c-11.3,34.9-35.7,37.2-122,0c0,0-8.6-24.3-18.1-65.6
	c-20.9-90.8-45.9-263.9,7.4-441.7c15.9-53.4,38.5-104.7,67.2-152.5c0,0,45.6,52.3,79,152.4S710.5,415.4,662,606.6z"/>
<circle class="st2" cx="584.1" cy="308.5" r="71.6"/>
<path class="st0" d="M634.9,308.5c0,28.1-22.7,50.8-50.8,50.8c-11.7,0-23.1-4.1-32.2-11.5c-3.6-3-6.8-6.5-9.5-10.3
	c-1.2-1.7-2.3-3.5-3.3-5.4c-3.8-7.3-5.8-15.4-5.8-23.6c0-0.4,0-0.8,0-1.2c0.5-22.3,15.5-41.6,37-47.7c4-1.1,8.1-1.7,12.2-1.9h1.5
	C612.1,257.7,634.8,280.4,634.9,308.5C634.9,308.5,634.9,308.5,634.9,308.5z"/>
<path class="st2" d="M655.8,167.3c-81.3,38.9-146.2,0-146.2,0c15.9-53.4,38.5-104.7,67.2-152.4C576.8,14.9,622.4,67.2,655.8,167.3z"
	/>
<path class="st2" d="M662,606.6c-3.8,15-8,30.2-12.7,45.7c-2.2,7.4-4.5,14.8-7,22.3c-3.7,11.3-35.7,37.2-122,0c0,0-2.8-7.9-7-22.3
	c-3.1-10.9-7-25.5-11.1-43.3c0,0,32.1,13.7,77.7,13.7C608,622.8,635.9,617.3,662,606.6z"/>
<path class="st5" d="M649.3,652.3c-2.2,7.4-4.5,14.8-7,22.3c-3.7,11.3-35.7,37.2-122,0c0,0-2.8-7.9-7-22.3
	C513.3,652.3,601.2,677.6,649.3,652.3z"/>
<path class="st3" d="M570.3,259.5l-0.1,0.1l-36.9,47.6c0,0.4,0,0.8,0,1.2c0,8.2,2,16.3,5.8,23.6l43.5-74.4L570.3,259.5z"/>
<path class="st3" d="M582.1,302.5l-30.2,45.3c-3.6-3-6.8-6.5-9.5-10.3l36-38.6L582.1,302.5z"/>
<path class="st3" d="M539.6,674.6c0,0-8.6-24.3-18.1-65.6c-20.9-90.8-45.9-263.9,7.4-441.7c14.3-48.1,34.1-94.4,58.9-138.1
	c-6.8-9.5-11-14.3-11-14.3c-28.7,47.8-51.3,99-67.2,152.4c-53.3,177.8-28.3,350.9-7.4,441.7c9.5,41.3,18.1,65.6,18.1,65.6
	c34.1,14.7,60.3,17.8,79.5,16.1C583.3,689.5,563.4,684.9,539.6,674.6z"/>
	<animateTransform attributeName="transform"
		attributeType="XML"
		type="translate"
		values="0 0;0 80;0 0"
		dur="2s"
		repeatCount="indefinite"/>
	</g>
</svg>
