<?xml version="1.0" encoding="utf-8"?>
<!-- Generator: Adobe Illustrator 19.2.1, SVG Export Plug-In . SVG Version: 6.00 Build 0)  -->
<svg version="1.1" id="a594ac37-6d44-4297-8862-1cbd9c01c0b7"
	 xmlns="http://www.w3.org/2000/svg" xmlns:xlink="http://www.w3.org/1999/xlink" x="0px" y="0px" viewBox="0 0 1126.2 855"
	 style="enable-background:new 0 0 1126.2 855;" xml:space="preserve">
<style type="text/css">
	.st0{fill:#F2F2F2;}
	.st1{fill:#3F3D56;}
	.st2{opacity:0.1;enable-background:new    ;}
	.st3{fill:#e66c00;}
	.st4{fill:#6C63FF;}
</style>
<title>code review</title>

<ellipse class="st1" cx="565.2" cy="756" rx="506" ry="31"/>
<ellipse class="st2" cx="565.2" cy="755.5" rx="431" ry="20.5"/>
<rect x="196.2" y="162" class="st1" width="752" height="590"/>
<path class="st0" d="M563.6,242.6H378.1c-1.2,0-2.3-1-2.3-2.2s1-2.3,2.2-2.3c0,0,0,0,0,0h185.5c1.2,0,2.2,1,2.2,2.3
	C565.9,241.6,564.9,242.6,563.6,242.6z"/>
<path class="st0" d="M766.7,267.4H474.9c-1.2,0-2.3-1-2.3-2.3s1-2.3,2.3-2.3l0,0h291.8c1.2,0,2.3,1,2.3,2.3S768,267.4,766.7,267.4z"
	/>
<path class="st0" d="M564.5,292.2H379c-1.2,0-2.3-1-2.3-2.3s1-2.3,2.3-2.3h185.5c1.2,0,2.3,1,2.3,2.3S565.8,292.2,564.5,292.2z"/>
<path class="st0" d="M766.7,292.6H581.2c-1.2,0-2.3-1-2.3-2.3s1-2.3,2.3-2.3h185.5c1.2,0,2.3,1,2.3,2.3S768,292.6,766.7,292.6z"/>
<path class="st0" d="M565,316.9H379.5c-1.2,0-2.3-1-2.3-2.3s1-2.3,2.3-2.3H565c1.2,0,2.3,1,2.3,2.3S566.2,316.9,565,316.9z"/>
<path class="st0" d="M565.4,341.7H379.9c-1.2,0-2.3-1-2.3-2.3s1-2.3,2.3-2.3h185.5c1.2,0,2.3,1,2.3,2.3S566.7,341.7,565.4,341.7z"/>
<path class="st0" d="M649.6,243.1h-53.1c-1.2,0-2.3-1-2.3-2.3s1-2.3,2.3-2.3l0,0h53.1c1.2,0,2.3,1,2.3,2.3S650.9,243.1,649.6,243.1z
	"/>
<path class="st0" d="M649.6,316.9h-53.1c-1.2,0-2.3-1-2.3-2.3s1-2.3,2.3-2.3l0,0h53.1c1.2,0,2.3,1,2.3,2.3S650.9,316.9,649.6,316.9z
	"/>
<path class="st0" d="M649.6,341.2h-53.1c-1.2,0-2.3-1-2.3-2.2s1-2.3,2.2-2.3c0,0,0,0,0,0h53.1c1.2,0,2.3,1,2.3,2.2
	S650.9,341.2,649.6,341.2C649.7,341.2,649.6,341.2,649.6,341.2z"/>
<path class="st0" d="M738.8,341.2h-53.1c-1.2,0-2.2-1-2.2-2.3c0-1.2,1-2.2,2.2-2.2h53.1c1.2,0,2.3,1,2.3,2.2
	S740.1,341.2,738.8,341.2C738.8,341.2,738.8,341.2,738.8,341.2z"/>
<path class="st0" d="M430.8,267.4h-53.1c-1.2,0-2.3-1-2.3-2.3s1-2.3,2.3-2.3l0,0h53.1c1.2,0,2.3,1,2.3,2.3S432,267.4,430.8,267.4z"
	/>
<path class="st0" d="M563.9,607.4H378.3c-1.2,0-2.3-1-2.3-2.3c0-1.2,1-2.3,2.3-2.3l0,0h185.5c1.2,0,2.3,1,2.3,2.3
	C566.1,606.4,565.1,607.4,563.9,607.4z"/>
<path class="st0" d="M563,656.9H377.4c-1.2,0-2.3-1-2.3-2.3c0-1.2,1-2.3,2.3-2.3l0,0H563c1.2,0,2.3,1,2.3,2.3
	C565.2,655.9,564.2,656.9,563,656.9z"/>
<path class="st0" d="M563.4,681.7H377.9c-1.2,0-2.3-1-2.3-2.3c0-1.2,1-2.3,2.3-2.3l0,0h185.5c1.2,0,2.3,1,2.3,2.3
	C565.7,680.6,564.7,681.7,563.4,681.7z"/>
<path class="st0" d="M642.7,657.3h-53.1c-1.2,0-2.3-1-2.3-2.3c0-1.2,1-2.3,2.3-2.3h53.1c1.2,0,2.3,1,2.3,2.3
	C644.9,656.3,643.9,657.3,642.7,657.3L642.7,657.3z"/>
<path class="st0" d="M642.7,681.7h-53.1c-1.2,0-2.3-1-2.3-2.3c0-1.2,1-2.3,2.3-2.3h53.1c1.2,0,2.3,1,2.3,2.3
	C644.9,680.6,643.9,681.7,642.7,681.7L642.7,681.7z"/>
<path class="st0" d="M731.8,657.3h-53.1c-1.2,0-2.3-1-2.3-2.3c0-1.2,1-2.3,2.3-2.3h53.1c1.2,0,2.3,1,2.3,2.3
	C734.1,656.3,733.1,657.3,731.8,657.3z"/>
<path class="st0" d="M766.9,632.1H475.2c-1.2,0-2.3-1-2.3-2.3c0-1.2,1-2.3,2.3-2.3h291.8c1.2,0,2.3,1,2.3,2.3
	C769.2,631.1,768.2,632.1,766.9,632.1z"/>
<path class="st0" d="M431,632.1h-53.1c-1.2,0-2.3-1-2.3-2.3c0-1.2,1-2.3,2.3-2.3l0,0H431c1.2,0,2.3,1,2.3,2.3
	C433.3,631.1,432.3,632.1,431,632.1z"/>
<path class="st0" d="M766.9,706.9H475.2c-1.2,0-2.3-1-2.3-2.3c0-1.2,1-2.3,2.3-2.3h291.8c1.2,0,2.3,1,2.3,2.3
	C769.2,705.9,768.2,706.9,766.9,706.9L766.9,706.9z"/>
<path class="st0" d="M431,706.9h-53.1c-1.2,0-2.3-1-2.3-2.3c0-1.2,1-2.3,2.3-2.3l0,0H431c1.2,0,2.3,1,2.3,2.3
	C433.3,705.9,432.3,706.9,431,706.9z"/>
<polygon class="st3" points="519.1,401.1 447,472.3 519.1,543.4 535.3,527.2 480.8,472.7 535.7,417.8 ">
	<animateTransform attributeName="transform"
	  attributeType="XML"
	  type="translate"
	  values="0 0;0 60;0 0"
	  dur="2s"
	  repeatCount="indefinite"/>
</polygon>
<polygon class="st3" points="625.3,401.1 697.4,472.3 625.3,543.4 609.1,527.2 663.6,472.7 608.7,417.8 ">
<animateTransform attributeName="transform"
	attributeType="XML"
	type="translate"
	values="0 0;0 60;0 0"
	dur="2s"
	repeatCount="indefinite"/>
</polygon>
<circle class="st3" cx="216.2" cy="177" r="9"/>
<circle class="st4" cx="240.2" cy="177" r="9"/>
<circle class="st4" cx="264.2" cy="177" r="9"/>
<rect x="196.2" y="192" class="st2" width="752" height="3"/>
<path class="st0" d="M1126.2,607.5c0,63.8-37.9,86-84.7,86s-84.7-22.3-84.7-86s84.7-144.9,84.7-144.9S1126.2,543.7,1126.2,607.5z">
<animateTransform attributeName="transform"
	attributeType="XML"
	type="translate"
	values="0 0 ;8 0 ;0 0"
	dur="4s"
	repeatCount="indefinite"/>
</path>
<polygon class="st1" points="1038.4,683.7 1039.3,630.4 1075.4,564.3 1039.4,622 1039.8,598 1064.7,550.2 1039.9,591.6
	1039.9,591.6 1040.6,548.5 1067.3,510.5 1040.7,541.7 1041.2,462.6 1038.4,567.3 1038.7,563 1011.6,521.6 1038.2,571.3
	1035.7,619.5 1035.6,618.2 1004.4,574.6 1035.5,622.7 1035.2,628.8 1035.2,628.9 1035.2,629.4 1028.8,751.7 1037.3,751.7
	1038.4,688.5 1069.4,640.5 ">
	<animateTransform attributeName="transform"
	  attributeType="XML"
	  type="rotate"
	  values="0 0 0;1 0 50;0 0 0"
	  dur="4s"
	  repeatCount="indefinite"/>
</polygon>
</svg>
