<?xml version="1.0" encoding="utf-8"?>
<!-- Generator: Adobe Illustrator 19.2.1, SVG Export Plug-In . SVG Version: 6.00 Build 0)  -->
<svg version="1.1" id="e07e5ae7-3299-40d2-9315-78b8b3e13d89"
	 xmlns="http://www.w3.org/2000/svg" xmlns:xlink="http://www.w3.org/1999/xlink" x="0px" y="0px" viewBox="0 0 1075 766.4"
	 style="enable-background:new 0 0 1075 766.4;" xml:space="preserve">
<style type="text/css">
	.st0{fill:#6C63FF;}
	.st1{fill:#3F3D56;}
	.st2{fill:#FFFFFF;}
	.st3{fill:#F0F0F0;}
	.st4{fill:#F2F2F2;}
</style>
<title>mobile_prototyping</title>
<path class="st0" d="M636.3,182.3v397c0,9.8-8,17.8-17.8,17.8H457.3c-9.8,0-17.8-7.9-17.8-17.8c0,0,0,0,0-0.1v-397
	c0-9.9,8-17.8,17.8-17.8c0,0,0,0,0,0h24.1v3.1c0,8.1,6.6,14.7,14.7,14.7h82c8.1,0,14.7-6.6,14.7-14.7v-3.1h25.7
	C628.3,164.5,636.3,172.5,636.3,182.3C636.3,182.3,636.3,182.3,636.3,182.3z">
	<animateTransform attributeName="transform"
		attributeType="XML"
		type="translate"
		values="0 0;0 30;0 0"
		dur="2s"
		repeatCount="indefinite"/>
	</path>
<rect x="446.6" y="230.8" class="st1" width="182.7" height="89"/>
<path class="st2" d="M520.1,291.9c4.8,17.7,21.2,28.6,21.2,28.6s8.6-17.7,3.8-35.4S524,256.5,524,256.5S515.3,274.3,520.1,291.9z"/>
<path class="st0" d="M527.2,288.1c13.1,12.8,14.7,32.4,14.7,32.4s-19.7-1.1-32.8-13.9s-14.7-32.4-14.7-32.4S514,275.4,527.2,288.1z"
	/>
<path class="st2" d="M563.6,291.9c-4.8,17.7-21.2,28.6-21.2,28.6s-8.6-17.7-3.8-35.4s21.2-28.6,21.2-28.6S568.4,274.3,563.6,291.9z"
	/>
<path class="st0" d="M556.6,288.1c-13.1,12.8-14.7,32.4-14.7,32.4s19.7-1.1,32.8-13.9c13.1-12.8,14.7-32.4,14.7-32.4
	S569.7,275.4,556.6,288.1z"/>
<rect x="462.9" y="369.7" class="st3" width="150" height="8.2"/>
<rect x="462.9" y="382.9" class="st3" width="150" height="8.2"/>
<rect x="462.9" y="396.2" class="st3" width="150" height="8.2"/>
<rect x="462.9" y="409.5" class="st3" width="150" height="8.2"/>
<rect x="517.4" y="464.8" transform="matrix(0.5789 -0.8154 0.8154 0.5789 -169.1835 642.9917)" class="st3" width="41" height="41"/>
<path class="st1" d="M542.5,522.4c-5.2,0-9.5-4.2-9.5-9.5c0-5.2,4.2-9.5,9.5-9.5c5.2,0,9.5,4.2,9.5,9.5
	C551.9,518.2,547.7,522.4,542.5,522.4z M542.5,505.1c-4.3,0-7.9,3.5-7.9,7.9c0,4.3,3.5,7.9,7.9,7.9c4.3,0,7.9-3.5,7.9-7.9l0,0
	C550.3,508.6,546.8,505.1,542.5,505.1L542.5,505.1z"/>
<path class="st4" d="M311.9,97.3v397c0,9.8-8,17.8-17.8,17.8H132.8c-9.8,0-17.8-7.9-17.8-17.8c0,0,0,0,0-0.1v-397
	c0-9.9,8-17.8,17.8-17.8c0,0,0,0,0,0H157v3.1c0,8.1,6.6,14.7,14.7,14.7h82c8.1,0,14.7-6.6,14.7-14.7v-3.1H294
	C303.9,79.4,311.9,87.4,311.9,97.3C311.9,97.3,311.9,97.3,311.9,97.3z"/>
<path class="st1" d="M291.4,296.2H133.9v-141h157.5V296.2z M135.5,294.6h154.4V156.8H135.5L135.5,294.6z"/>
<rect x="211.9" y="121.1" transform="matrix(0.6665 -0.7455 0.7455 0.6665 -97.3498 233.8225)" class="st1" width="1.6" height="209.2"/>
<rect x="108.1" y="224.9" transform="matrix(0.7455 -0.6665 0.6665 0.7455 -96.3166 199.1551)" class="st1" width="209.2" height="1.6"/>
<rect x="134.7" y="337.2" class="st1" width="155.9" height="1.6"/>
<rect x="134.7" y="351.3" class="st1" width="155.9" height="1.6"/>
<rect x="134.7" y="365.5" class="st1" width="155.9" height="1.6"/>
<rect x="134.7" y="379.7" class="st1" width="78" height="1.6"/>
<rect x="134.7" y="393.9" class="st1" width="78" height="1.6"/>
<path class="st4" d="M960,97.3v397c0,9.8-8,17.8-17.8,17.8H781c-9.8,0-17.8-7.9-17.8-17.8c0,0,0,0,0-0.1v-397
	c0-9.9,8-17.8,17.8-17.8c0,0,0,0,0,0h24.1v3.1c0,8.1,6.6,14.7,14.7,14.7h82c8.1,0,14.7-6.6,14.7-14.7v-3.1h25.7
	C952,79.4,960,87.4,960,97.3C960,97.3,960,97.3,960,97.3z"/>
<rect x="784.4" y="282.8" class="st1" width="155.9" height="1.6"/>
<rect x="784.4" y="323.8" class="st1" width="155.9" height="1.6"/>
<rect x="784.4" y="364.7" class="st1" width="155.9" height="1.6"/>
<circle class="st0" cx="858.2" cy="197.4" r="25.6"/>
<rect x="901" y="275.7" class="st0" width="11" height="25.2">
	<animateTransform attributeName="transform"
		attributeType="XML"
		type="translate"
		values="0 0;-63 0;0 0"
		dur="2s"
		repeatCount="indefinite"/>
	</rect>
<rect x="804.1" y="315.9" class="st0" width="11" height="25.2">
	<animateTransform attributeName="transform"
		attributeType="XML"
		type="translate"
		values="0 0;63 0;0 0"
		dur="2s"
		repeatCount="indefinite"/>
	</rect>
<rect x="868.7" y="356.1" class="st0" width="11" height="25.2">
	<animateTransform attributeName="transform"
		attributeType="XML"
		type="translate"
		values="0 0;-33 0;0 0"
		dur="2s"
		repeatCount="indefinite"/>
	</rect>
<path class="st1" d="M861.6,226.1c-17.4,0-31.5-14.1-31.5-31.5s14.1-31.5,31.5-31.5s31.5,14.1,31.5,31.5c0,0,0,0,0,0
	C893.1,212,879,226.1,861.6,226.1z M861.6,164.7c-16.5,0-29.9,13.4-29.9,29.9c0,16.5,13.4,29.9,29.9,29.9
	c16.5,0,29.9-13.4,29.9-29.9C891.5,178.1,878.1,164.7,861.6,164.7L861.6,164.7z"/>
<rect x="363" y="277" transform="matrix(0.7711 -0.6367 0.6367 0.7711 -124.6355 306.4875)" class="st1" width="2" height="99.3"/>
<path class="st1" d="M403.2,374.2c-5.2-3-12.5-6.2-18.2-7.1l9.5-3.4l5.1-8.7C399.5,360.7,401.3,368.5,403.2,374.2z"/>
<rect x="660.7" y="325.6" transform="matrix(0.6365 -0.7713 0.7713 0.6365 6.2892 666.5322)" class="st1" width="99.3" height="2"/>
<path class="st1" d="M671,374.2c2-5.7,3.7-13.4,3.5-19.2l5.1,8.7l9.5,3.4C683.5,368,676.3,371.1,671,374.2z"/>
</svg>
